<mxfile host="Electron" agent="Mozilla/5.0 (Macintosh; Intel Mac OS X 10_15_7) AppleWebKit/537.36 (KHTML, like Gecko) draw.io/26.2.15 Chrome/134.0.6998.205 Electron/35.2.1 Safari/537.36" version="26.2.15">
  <diagram id="C5RBs43oDa-KdzZeNtuy" name="Page-1">
    <mxGraphModel dx="1257" dy="697" grid="1" gridSize="10" guides="1" tooltips="1" connect="1" arrows="1" fold="1" page="1" pageScale="1" pageWidth="827" pageHeight="1169" math="0" shadow="0">
      <root>
        <mxCell id="WIyWlLk6GJQsqaUBKTNV-0" />
        <mxCell id="WIyWlLk6GJQsqaUBKTNV-1" parent="WIyWlLk6GJQsqaUBKTNV-0" />
        <mxCell id="WIyWlLk6GJQsqaUBKTNV-2" value="" style="rounded=0;html=1;jettySize=auto;orthogonalLoop=1;fontSize=11;endArrow=block;endFill=0;endSize=8;strokeWidth=1;shadow=0;labelBackgroundColor=none;edgeStyle=orthogonalEdgeStyle;" parent="WIyWlLk6GJQsqaUBKTNV-1" source="WIyWlLk6GJQsqaUBKTNV-3" target="WIyWlLk6GJQsqaUBKTNV-6" edge="1">
          <mxGeometry relative="1" as="geometry" />
        </mxCell>
        <mxCell id="WIyWlLk6GJQsqaUBKTNV-3" value="Start Program" style="rounded=1;whiteSpace=wrap;html=1;fontSize=12;glass=0;strokeWidth=1;shadow=0;" parent="WIyWlLk6GJQsqaUBKTNV-1" vertex="1">
          <mxGeometry x="17.5" y="70" width="120" height="40" as="geometry" />
        </mxCell>
        <mxCell id="WIyWlLk6GJQsqaUBKTNV-4" value="Yes" style="rounded=0;html=1;jettySize=auto;orthogonalLoop=1;fontSize=11;endArrow=block;endFill=0;endSize=8;strokeWidth=1;shadow=0;labelBackgroundColor=none;edgeStyle=orthogonalEdgeStyle;entryX=0.5;entryY=0;entryDx=0;entryDy=0;" parent="WIyWlLk6GJQsqaUBKTNV-1" source="WIyWlLk6GJQsqaUBKTNV-6" target="WIyWlLk6GJQsqaUBKTNV-12" edge="1">
          <mxGeometry y="20" relative="1" as="geometry">
            <mxPoint as="offset" />
            <mxPoint x="77.5" y="280" as="targetPoint" />
          </mxGeometry>
        </mxCell>
        <mxCell id="WIyWlLk6GJQsqaUBKTNV-5" value="No" style="edgeStyle=orthogonalEdgeStyle;rounded=0;html=1;jettySize=auto;orthogonalLoop=1;fontSize=11;endArrow=block;endFill=0;endSize=8;strokeWidth=1;shadow=0;labelBackgroundColor=none;" parent="WIyWlLk6GJQsqaUBKTNV-1" source="WIyWlLk6GJQsqaUBKTNV-6" target="WIyWlLk6GJQsqaUBKTNV-7" edge="1">
          <mxGeometry y="10" relative="1" as="geometry">
            <mxPoint as="offset" />
          </mxGeometry>
        </mxCell>
        <mxCell id="WIyWlLk6GJQsqaUBKTNV-6" value="Does DB exsist?" style="rhombus;whiteSpace=wrap;html=1;shadow=0;fontFamily=Helvetica;fontSize=12;align=center;strokeWidth=1;spacing=6;spacingTop=-4;" parent="WIyWlLk6GJQsqaUBKTNV-1" vertex="1">
          <mxGeometry x="10" y="150" width="135" height="110" as="geometry" />
        </mxCell>
        <mxCell id="iWARPSZfdkIAXShAbE1i-0" style="edgeStyle=orthogonalEdgeStyle;rounded=0;orthogonalLoop=1;jettySize=auto;html=1;entryX=1;entryY=0.75;entryDx=0;entryDy=0;exitX=0.5;exitY=1;exitDx=0;exitDy=0;" edge="1" parent="WIyWlLk6GJQsqaUBKTNV-1" source="WIyWlLk6GJQsqaUBKTNV-7" target="WIyWlLk6GJQsqaUBKTNV-12">
          <mxGeometry relative="1" as="geometry">
            <mxPoint x="227.5" y="350" as="targetPoint" />
          </mxGeometry>
        </mxCell>
        <mxCell id="WIyWlLk6GJQsqaUBKTNV-7" value="Create DB" style="rounded=1;whiteSpace=wrap;html=1;fontSize=12;glass=0;strokeWidth=1;shadow=0;" parent="WIyWlLk6GJQsqaUBKTNV-1" vertex="1">
          <mxGeometry x="187.5" y="185" width="120" height="40" as="geometry" />
        </mxCell>
        <mxCell id="WIyWlLk6GJQsqaUBKTNV-12" value="Menu()" style="rounded=1;whiteSpace=wrap;html=1;fontSize=12;glass=0;strokeWidth=1;shadow=0;" parent="WIyWlLk6GJQsqaUBKTNV-1" vertex="1">
          <mxGeometry x="17.5" y="310" width="120" height="40" as="geometry" />
        </mxCell>
        <mxCell id="iWARPSZfdkIAXShAbE1i-17" value="" style="edgeStyle=orthogonalEdgeStyle;rounded=0;orthogonalLoop=1;jettySize=auto;html=1;" edge="1" parent="WIyWlLk6GJQsqaUBKTNV-1" source="iWARPSZfdkIAXShAbE1i-1" target="iWARPSZfdkIAXShAbE1i-3">
          <mxGeometry relative="1" as="geometry" />
        </mxCell>
        <mxCell id="iWARPSZfdkIAXShAbE1i-1" value="Get task name from user" style="rounded=1;whiteSpace=wrap;html=1;fontSize=12;glass=0;strokeWidth=1;shadow=0;" vertex="1" parent="WIyWlLk6GJQsqaUBKTNV-1">
          <mxGeometry x="17.5" y="430" width="120" height="40" as="geometry" />
        </mxCell>
        <mxCell id="iWARPSZfdkIAXShAbE1i-18" value="" style="edgeStyle=orthogonalEdgeStyle;rounded=0;orthogonalLoop=1;jettySize=auto;html=1;" edge="1" parent="WIyWlLk6GJQsqaUBKTNV-1" source="iWARPSZfdkIAXShAbE1i-3" target="iWARPSZfdkIAXShAbE1i-4">
          <mxGeometry relative="1" as="geometry" />
        </mxCell>
        <mxCell id="iWARPSZfdkIAXShAbE1i-3" value="Connect to DB&amp;nbsp;" style="rounded=1;whiteSpace=wrap;html=1;fontSize=12;glass=0;strokeWidth=1;shadow=0;" vertex="1" parent="WIyWlLk6GJQsqaUBKTNV-1">
          <mxGeometry x="17.5" y="510" width="120" height="40" as="geometry" />
        </mxCell>
        <mxCell id="iWARPSZfdkIAXShAbE1i-4" value="Insert into tasks table" style="rounded=1;whiteSpace=wrap;html=1;fontSize=12;glass=0;strokeWidth=1;shadow=0;" vertex="1" parent="WIyWlLk6GJQsqaUBKTNV-1">
          <mxGeometry x="17.5" y="590" width="120" height="40" as="geometry" />
        </mxCell>
        <mxCell id="iWARPSZfdkIAXShAbE1i-6" value="Start Program" style="text;html=1;align=center;verticalAlign=middle;whiteSpace=wrap;rounded=0;fontStyle=1" vertex="1" parent="WIyWlLk6GJQsqaUBKTNV-1">
          <mxGeometry x="10" y="20" width="140" height="30" as="geometry" />
        </mxCell>
        <mxCell id="iWARPSZfdkIAXShAbE1i-7" value="Add Task" style="text;html=1;align=center;verticalAlign=middle;whiteSpace=wrap;rounded=0;fontStyle=1" vertex="1" parent="WIyWlLk6GJQsqaUBKTNV-1">
          <mxGeometry x="47.5" y="390" width="60" height="30" as="geometry" />
        </mxCell>
        <mxCell id="iWARPSZfdkIAXShAbE1i-13" value="" style="edgeStyle=orthogonalEdgeStyle;rounded=0;orthogonalLoop=1;jettySize=auto;html=1;" edge="1" parent="WIyWlLk6GJQsqaUBKTNV-1" source="iWARPSZfdkIAXShAbE1i-8" target="iWARPSZfdkIAXShAbE1i-10">
          <mxGeometry relative="1" as="geometry" />
        </mxCell>
        <mxCell id="iWARPSZfdkIAXShAbE1i-8" value="Create list &amp;lt;Tasks&amp;gt;" style="rounded=1;whiteSpace=wrap;html=1;fontSize=12;glass=0;strokeWidth=1;shadow=0;" vertex="1" parent="WIyWlLk6GJQsqaUBKTNV-1">
          <mxGeometry x="190" y="430" width="120" height="40" as="geometry" />
        </mxCell>
        <mxCell id="iWARPSZfdkIAXShAbE1i-9" value="Connect to DB&amp;nbsp;" style="rounded=1;whiteSpace=wrap;html=1;fontSize=12;glass=0;strokeWidth=1;shadow=0;" vertex="1" parent="WIyWlLk6GJQsqaUBKTNV-1">
          <mxGeometry x="190" y="510" width="120" height="40" as="geometry" />
        </mxCell>
        <mxCell id="iWARPSZfdkIAXShAbE1i-14" value="" style="edgeStyle=orthogonalEdgeStyle;rounded=0;orthogonalLoop=1;jettySize=auto;html=1;" edge="1" parent="WIyWlLk6GJQsqaUBKTNV-1" source="iWARPSZfdkIAXShAbE1i-10" target="iWARPSZfdkIAXShAbE1i-12">
          <mxGeometry relative="1" as="geometry" />
        </mxCell>
        <mxCell id="iWARPSZfdkIAXShAbE1i-10" value="read all items into &amp;lt;Tasks&amp;gt;" style="rounded=1;whiteSpace=wrap;html=1;fontSize=12;glass=0;strokeWidth=1;shadow=0;" vertex="1" parent="WIyWlLk6GJQsqaUBKTNV-1">
          <mxGeometry x="190" y="590" width="120" height="40" as="geometry" />
        </mxCell>
        <mxCell id="iWARPSZfdkIAXShAbE1i-12" value="print all &amp;lt;Tasks&amp;gt;" style="rounded=1;whiteSpace=wrap;html=1;fontSize=12;glass=0;strokeWidth=1;shadow=0;" vertex="1" parent="WIyWlLk6GJQsqaUBKTNV-1">
          <mxGeometry x="190" y="670" width="120" height="40" as="geometry" />
        </mxCell>
        <mxCell id="iWARPSZfdkIAXShAbE1i-15" value="Read All Tasks" style="text;html=1;align=center;verticalAlign=middle;whiteSpace=wrap;rounded=0;fontStyle=1" vertex="1" parent="WIyWlLk6GJQsqaUBKTNV-1">
          <mxGeometry x="220" y="390" width="60" height="30" as="geometry" />
        </mxCell>
        <mxCell id="iWARPSZfdkIAXShAbE1i-48" value="" style="edgeStyle=orthogonalEdgeStyle;rounded=0;orthogonalLoop=1;jettySize=auto;html=1;" edge="1" parent="WIyWlLk6GJQsqaUBKTNV-1" source="iWARPSZfdkIAXShAbE1i-19" target="iWARPSZfdkIAXShAbE1i-20">
          <mxGeometry relative="1" as="geometry" />
        </mxCell>
        <mxCell id="iWARPSZfdkIAXShAbE1i-19" value="Read All Tasks()" style="rounded=1;whiteSpace=wrap;html=1;fontSize=12;glass=0;strokeWidth=1;shadow=0;" vertex="1" parent="WIyWlLk6GJQsqaUBKTNV-1">
          <mxGeometry x="340" y="430" width="120" height="40" as="geometry" />
        </mxCell>
        <mxCell id="iWARPSZfdkIAXShAbE1i-46" value="" style="edgeStyle=orthogonalEdgeStyle;rounded=0;orthogonalLoop=1;jettySize=auto;html=1;" edge="1" parent="WIyWlLk6GJQsqaUBKTNV-1" source="iWARPSZfdkIAXShAbE1i-20" target="iWARPSZfdkIAXShAbE1i-22">
          <mxGeometry relative="1" as="geometry" />
        </mxCell>
        <mxCell id="iWARPSZfdkIAXShAbE1i-20" value="Ask user for Appropriate ROWID" style="rounded=1;whiteSpace=wrap;html=1;fontSize=12;glass=0;strokeWidth=1;shadow=0;" vertex="1" parent="WIyWlLk6GJQsqaUBKTNV-1">
          <mxGeometry x="340" y="510" width="120" height="40" as="geometry" />
        </mxCell>
        <mxCell id="iWARPSZfdkIAXShAbE1i-45" value="" style="edgeStyle=orthogonalEdgeStyle;rounded=0;orthogonalLoop=1;jettySize=auto;html=1;" edge="1" parent="WIyWlLk6GJQsqaUBKTNV-1" source="iWARPSZfdkIAXShAbE1i-22" target="iWARPSZfdkIAXShAbE1i-23">
          <mxGeometry relative="1" as="geometry" />
        </mxCell>
        <mxCell id="iWARPSZfdkIAXShAbE1i-22" value="Connect to DB&amp;nbsp;" style="rounded=1;whiteSpace=wrap;html=1;fontSize=12;glass=0;strokeWidth=1;shadow=0;" vertex="1" parent="WIyWlLk6GJQsqaUBKTNV-1">
          <mxGeometry x="340" y="590" width="120" height="40" as="geometry" />
        </mxCell>
        <mxCell id="iWARPSZfdkIAXShAbE1i-44" value="" style="edgeStyle=orthogonalEdgeStyle;rounded=0;orthogonalLoop=1;jettySize=auto;html=1;" edge="1" parent="WIyWlLk6GJQsqaUBKTNV-1" source="iWARPSZfdkIAXShAbE1i-23" target="iWARPSZfdkIAXShAbE1i-29">
          <mxGeometry relative="1" as="geometry" />
        </mxCell>
        <mxCell id="iWARPSZfdkIAXShAbE1i-23" value="Get status of task" style="rounded=1;whiteSpace=wrap;html=1;fontSize=12;glass=0;strokeWidth=1;shadow=0;" vertex="1" parent="WIyWlLk6GJQsqaUBKTNV-1">
          <mxGeometry x="340" y="670" width="120" height="40" as="geometry" />
        </mxCell>
        <mxCell id="iWARPSZfdkIAXShAbE1i-35" value="" style="edgeStyle=orthogonalEdgeStyle;rounded=0;orthogonalLoop=1;jettySize=auto;html=1;" edge="1" parent="WIyWlLk6GJQsqaUBKTNV-1" source="iWARPSZfdkIAXShAbE1i-25" target="iWARPSZfdkIAXShAbE1i-34">
          <mxGeometry relative="1" as="geometry" />
        </mxCell>
        <mxCell id="iWARPSZfdkIAXShAbE1i-36" value="Yes" style="edgeLabel;html=1;align=center;verticalAlign=middle;resizable=0;points=[];" vertex="1" connectable="0" parent="iWARPSZfdkIAXShAbE1i-35">
          <mxGeometry x="-0.1619" relative="1" as="geometry">
            <mxPoint as="offset" />
          </mxGeometry>
        </mxCell>
        <mxCell id="iWARPSZfdkIAXShAbE1i-39" value="" style="edgeStyle=orthogonalEdgeStyle;rounded=0;orthogonalLoop=1;jettySize=auto;html=1;" edge="1" parent="WIyWlLk6GJQsqaUBKTNV-1" source="iWARPSZfdkIAXShAbE1i-25" target="iWARPSZfdkIAXShAbE1i-38">
          <mxGeometry relative="1" as="geometry" />
        </mxCell>
        <mxCell id="iWARPSZfdkIAXShAbE1i-40" value="No" style="edgeLabel;html=1;align=center;verticalAlign=middle;resizable=0;points=[];" vertex="1" connectable="0" parent="iWARPSZfdkIAXShAbE1i-39">
          <mxGeometry x="-0.2229" y="-1" relative="1" as="geometry">
            <mxPoint as="offset" />
          </mxGeometry>
        </mxCell>
        <mxCell id="iWARPSZfdkIAXShAbE1i-25" value="Prompt user: set status to incomplete?" style="rhombus;whiteSpace=wrap;html=1;shadow=0;fontFamily=Helvetica;fontSize=12;align=center;strokeWidth=1;spacing=6;spacingTop=-4;" vertex="1" parent="WIyWlLk6GJQsqaUBKTNV-1">
          <mxGeometry x="562.5" y="750" width="135" height="110" as="geometry" />
        </mxCell>
        <mxCell id="iWARPSZfdkIAXShAbE1i-27" value="set status to complete" style="rounded=1;whiteSpace=wrap;html=1;fontSize=12;glass=0;strokeWidth=1;shadow=0;" vertex="1" parent="WIyWlLk6GJQsqaUBKTNV-1">
          <mxGeometry x="340" y="900" width="120" height="40" as="geometry" />
        </mxCell>
        <mxCell id="iWARPSZfdkIAXShAbE1i-41" value="" style="edgeStyle=orthogonalEdgeStyle;rounded=0;orthogonalLoop=1;jettySize=auto;html=1;" edge="1" parent="WIyWlLk6GJQsqaUBKTNV-1" source="iWARPSZfdkIAXShAbE1i-29" target="iWARPSZfdkIAXShAbE1i-25">
          <mxGeometry relative="1" as="geometry" />
        </mxCell>
        <mxCell id="iWARPSZfdkIAXShAbE1i-42" value="yes" style="edgeLabel;html=1;align=center;verticalAlign=middle;resizable=0;points=[];" vertex="1" connectable="0" parent="iWARPSZfdkIAXShAbE1i-41">
          <mxGeometry x="-0.3714" relative="1" as="geometry">
            <mxPoint as="offset" />
          </mxGeometry>
        </mxCell>
        <mxCell id="iWARPSZfdkIAXShAbE1i-43" value="No" style="edgeStyle=orthogonalEdgeStyle;rounded=0;orthogonalLoop=1;jettySize=auto;html=1;" edge="1" parent="WIyWlLk6GJQsqaUBKTNV-1" source="iWARPSZfdkIAXShAbE1i-29" target="iWARPSZfdkIAXShAbE1i-27">
          <mxGeometry relative="1" as="geometry" />
        </mxCell>
        <mxCell id="iWARPSZfdkIAXShAbE1i-29" value="Is task complete?" style="rhombus;whiteSpace=wrap;html=1;shadow=0;fontFamily=Helvetica;fontSize=12;align=center;strokeWidth=1;spacing=6;spacingTop=-4;" vertex="1" parent="WIyWlLk6GJQsqaUBKTNV-1">
          <mxGeometry x="332.5" y="750" width="135" height="110" as="geometry" />
        </mxCell>
        <mxCell id="iWARPSZfdkIAXShAbE1i-34" value="Set status to incomplete" style="rounded=1;whiteSpace=wrap;html=1;shadow=0;strokeWidth=1;spacing=6;spacingTop=-4;" vertex="1" parent="WIyWlLk6GJQsqaUBKTNV-1">
          <mxGeometry x="570" y="900" width="120" height="40" as="geometry" />
        </mxCell>
        <mxCell id="iWARPSZfdkIAXShAbE1i-38" value="Return to menu" style="rounded=1;whiteSpace=wrap;html=1;shadow=0;strokeWidth=1;spacing=6;spacingTop=-4;" vertex="1" parent="WIyWlLk6GJQsqaUBKTNV-1">
          <mxGeometry x="792.5" y="775" width="120" height="60" as="geometry" />
        </mxCell>
        <mxCell id="iWARPSZfdkIAXShAbE1i-49" value="Complete a task" style="text;html=1;align=center;verticalAlign=middle;whiteSpace=wrap;rounded=0;fontStyle=1" vertex="1" parent="WIyWlLk6GJQsqaUBKTNV-1">
          <mxGeometry x="322.5" y="390" width="150" height="30" as="geometry" />
        </mxCell>
      </root>
    </mxGraphModel>
  </diagram>
</mxfile>
